<?xml version="1.0" encoding="utf-8" standalone="no"?>
<!DOCTYPE svg PUBLIC "-//W3C//DTD SVG 1.1//EN"
  "http://www.w3.org/Graphics/SVG/1.1/DTD/svg11.dtd">
<!-- Created with matplotlib (http://matplotlib.sourceforge.net/) -->
<svg height="276pt" version="1.1" viewBox="0 0 564 276" width="564pt" xmlns="http://www.w3.org/2000/svg" xmlns:xlink="http://www.w3.org/1999/xlink">
 <defs>
  <style type="text/css">
*{stroke-linecap:square;stroke-linejoin:round;}
  </style>
 </defs>
 <g id="figure_1">
  <g id="patch_1">
   <path d="
M0 276.259
L564.513 276.259
L564.513 0
L0 0
z
" style="fill:#ffffff;"/>
  </g>
  <g id="axes_1">
   <g id="patch_2">
    <path d="
M41.9328 262.391
L557.313 262.391
L557.313 7.80225
L41.9328 7.80225
z
" style="fill:#ffffff;"/>
   </g>
   <g id="patch_3">
    <path clip-path="url(#p55e2b37eef)" d="
M51.844 257.495
L51.844 13.2987
L61.7551 13.2987
L61.7551 257.495
L51.844 257.495" style="fill:#0000ff;"/>
   </g>
   <g id="patch_4">
    <path clip-path="url(#p55e2b37eef)" d="
M61.7551 257.495
L61.7551 257.495
L71.6663 257.495
L71.6663 257.495
L61.7551 257.495" style="fill:#0000ff;"/>
   </g>
   <g id="patch_5">
    <path clip-path="url(#p55e2b37eef)" d="
M71.6663 257.495
L71.6663 257.492
L81.5774 257.492
L81.5774 257.495
L71.6663 257.495" style="fill:#0000ff;"/>
   </g>
   <g id="patch_6">
    <path clip-path="url(#p55e2b37eef)" d="
M81.5774 257.495
L81.5774 257.495
L91.4886 257.495
L91.4886 257.495
L81.5774 257.495" style="fill:#0000ff;"/>
   </g>
   <g id="patch_7">
    <path clip-path="url(#p55e2b37eef)" d="
M91.4886 257.495
L91.4886 257.495
L101.4 257.495
L101.4 257.495
L91.4886 257.495" style="fill:#0000ff;"/>
   </g>
   <g id="patch_8">
    <path clip-path="url(#p55e2b37eef)" d="
M101.4 257.495
L101.4 12.7394
L111.311 12.7394
L111.311 257.495
L101.4 257.495" style="fill:#0000ff;"/>
   </g>
   <g id="patch_9">
    <path clip-path="url(#p55e2b37eef)" d="
M111.311 257.495
L111.311 257.495
L121.222 257.495
L121.222 257.495
L111.311 257.495" style="fill:#0000ff;"/>
   </g>
   <g id="patch_10">
    <path clip-path="url(#p55e2b37eef)" d="
M121.222 257.495
L121.222 257.495
L131.133 257.495
L131.133 257.495
L121.222 257.495" style="fill:#0000ff;"/>
   </g>
   <g id="patch_11">
    <path clip-path="url(#p55e2b37eef)" d="
M131.133 257.495
L131.133 257.495
L141.044 257.495
L141.044 257.495
L131.133 257.495" style="fill:#0000ff;"/>
   </g>
   <g id="patch_12">
    <path clip-path="url(#p55e2b37eef)" d="
M141.044 257.495
L141.044 257.495
L150.956 257.495
L150.956 257.495
L141.044 257.495" style="fill:#0000ff;"/>
   </g>
   <g id="patch_13">
    <path clip-path="url(#p55e2b37eef)" d="
M150.956 257.495
L150.956 257.495
L160.867 257.495
L160.867 257.495
L150.956 257.495" style="fill:#0000ff;"/>
   </g>
   <g id="patch_14">
    <path clip-path="url(#p55e2b37eef)" d="
M160.867 257.495
L160.867 257.492
L170.778 257.492
L170.778 257.495
L160.867 257.495" style="fill:#0000ff;"/>
   </g>
   <g id="patch_15">
    <path clip-path="url(#p55e2b37eef)" d="
M170.778 257.495
L170.778 257.495
L180.689 257.495
L180.689 257.495
L170.778 257.495" style="fill:#0000ff;"/>
   </g>
   <g id="patch_16">
    <path clip-path="url(#p55e2b37eef)" d="
M180.689 257.495
L180.689 257.495
L190.6 257.495
L190.6 257.495
L180.689 257.495" style="fill:#0000ff;"/>
   </g>
   <g id="patch_17">
    <path clip-path="url(#p55e2b37eef)" d="
M190.6 257.495
L190.6 257.495
L200.511 257.495
L200.511 257.495
L190.6 257.495" style="fill:#0000ff;"/>
   </g>
   <g id="patch_18">
    <path clip-path="url(#p55e2b37eef)" d="
M200.511 257.495
L200.511 257.495
L210.422 257.495
L210.422 257.495
L200.511 257.495" style="fill:#0000ff;"/>
   </g>
   <g id="patch_19">
    <path clip-path="url(#p55e2b37eef)" d="
M210.422 257.495
L210.422 12.969
L220.334 12.969
L220.334 257.495
L210.422 257.495" style="fill:#0000ff;"/>
   </g>
   <g id="patch_20">
    <path clip-path="url(#p55e2b37eef)" d="
M220.334 257.495
L220.334 257.495
L230.245 257.495
L230.245 257.495
L220.334 257.495" style="fill:#0000ff;"/>
   </g>
   <g id="patch_21">
    <path clip-path="url(#p55e2b37eef)" d="
M230.245 257.495
L230.245 257.495
L240.156 257.495
L240.156 257.495
L230.245 257.495" style="fill:#0000ff;"/>
   </g>
   <g id="patch_22">
    <path clip-path="url(#p55e2b37eef)" d="
M240.156 257.495
L240.156 257.495
L250.067 257.495
L250.067 257.495
L240.156 257.495" style="fill:#0000ff;"/>
   </g>
   <g id="patch_23">
    <path clip-path="url(#p55e2b37eef)" d="
M250.067 257.495
L250.067 257.495
L259.978 257.495
L259.978 257.495
L250.067 257.495" style="fill:#0000ff;"/>
   </g>
   <g id="patch_24">
    <path clip-path="url(#p55e2b37eef)" d="
M259.978 257.495
L259.978 257.495
L269.889 257.495
L269.889 257.495
L259.978 257.495" style="fill:#0000ff;"/>
   </g>
   <g id="patch_25">
    <path clip-path="url(#p55e2b37eef)" d="
M269.889 257.495
L269.889 13.181
L279.801 13.181
L279.801 257.495
L269.889 257.495" style="fill:#0000ff;"/>
   </g>
   <g id="patch_26">
    <path clip-path="url(#p55e2b37eef)" d="
M279.801 257.495
L279.801 257.495
L289.712 257.495
L289.712 257.495
L279.801 257.495" style="fill:#0000ff;"/>
   </g>
   <g id="patch_27">
    <path clip-path="url(#p55e2b37eef)" d="
M289.712 257.495
L289.712 257.495
L299.623 257.495
L299.623 257.495
L289.712 257.495" style="fill:#0000ff;"/>
   </g>
   <g id="patch_28">
    <path clip-path="url(#p55e2b37eef)" d="
M299.623 257.495
L299.623 257.495
L309.534 257.495
L309.534 257.495
L299.623 257.495" style="fill:#0000ff;"/>
   </g>
   <g id="patch_29">
    <path clip-path="url(#p55e2b37eef)" d="
M309.534 257.495
L309.534 257.495
L319.445 257.495
L319.445 257.495
L309.534 257.495" style="fill:#0000ff;"/>
   </g>
   <g id="patch_30">
    <path clip-path="url(#p55e2b37eef)" d="
M319.445 257.495
L319.445 12.6982
L329.356 12.6982
L329.356 257.495
L319.445 257.495" style="fill:#0000ff;"/>
   </g>
   <g id="patch_31">
    <path clip-path="url(#p55e2b37eef)" d="
M329.356 257.495
L329.356 257.495
L339.267 257.495
L339.267 257.495
L329.356 257.495" style="fill:#0000ff;"/>
   </g>
   <g id="patch_32">
    <path clip-path="url(#p55e2b37eef)" d="
M339.267 257.495
L339.267 257.495
L349.179 257.495
L349.179 257.495
L339.267 257.495" style="fill:#0000ff;"/>
   </g>
   <g id="patch_33">
    <path clip-path="url(#p55e2b37eef)" d="
M349.179 257.495
L349.179 257.495
L359.09 257.495
L359.09 257.495
L349.179 257.495" style="fill:#0000ff;"/>
   </g>
   <g id="patch_34">
    <path clip-path="url(#p55e2b37eef)" d="
M359.09 257.495
L359.09 257.495
L369.001 257.495
L369.001 257.495
L359.09 257.495" style="fill:#0000ff;"/>
   </g>
   <g id="patch_35">
    <path clip-path="url(#p55e2b37eef)" d="
M369.001 257.495
L369.001 257.495
L378.912 257.495
L378.912 257.495
L369.001 257.495" style="fill:#0000ff;"/>
   </g>
   <g id="patch_36">
    <path clip-path="url(#p55e2b37eef)" d="
M378.912 257.495
L378.912 12.8866
L388.823 12.8866
L388.823 257.495
L378.912 257.495" style="fill:#0000ff;"/>
   </g>
   <g id="patch_37">
    <path clip-path="url(#p55e2b37eef)" d="
M388.823 257.495
L388.823 257.495
L398.734 257.495
L398.734 257.495
L388.823 257.495" style="fill:#0000ff;"/>
   </g>
   <g id="patch_38">
    <path clip-path="url(#p55e2b37eef)" d="
M398.734 257.495
L398.734 257.495
L408.646 257.495
L408.646 257.495
L398.734 257.495" style="fill:#0000ff;"/>
   </g>
   <g id="patch_39">
    <path clip-path="url(#p55e2b37eef)" d="
M408.646 257.495
L408.646 257.495
L418.557 257.495
L418.557 257.495
L408.646 257.495" style="fill:#0000ff;"/>
   </g>
   <g id="patch_40">
    <path clip-path="url(#p55e2b37eef)" d="
M418.557 257.495
L418.557 257.495
L428.468 257.495
L428.468 257.495
L418.557 257.495" style="fill:#0000ff;"/>
   </g>
   <g id="patch_41">
    <path clip-path="url(#p55e2b37eef)" d="
M428.468 257.495
L428.468 257.495
L438.379 257.495
L438.379 257.495
L428.468 257.495" style="fill:#0000ff;"/>
   </g>
   <g id="patch_42">
    <path clip-path="url(#p55e2b37eef)" d="
M438.379 257.495
L438.379 257.495
L448.29 257.495
L448.29 257.495
L438.379 257.495" style="fill:#0000ff;"/>
   </g>
   <g id="patch_43">
    <path clip-path="url(#p55e2b37eef)" d="
M448.29 257.495
L448.29 257.495
L458.201 257.495
L458.201 257.495
L448.29 257.495" style="fill:#0000ff;"/>
   </g>
   <g id="patch_44">
    <path clip-path="url(#p55e2b37eef)" d="
M458.201 257.495
L458.201 257.495
L468.112 257.495
L468.112 257.495
L458.201 257.495" style="fill:#0000ff;"/>
   </g>
   <g id="patch_45">
    <path clip-path="url(#p55e2b37eef)" d="
M468.112 257.495
L468.112 257.495
L478.024 257.495
L478.024 257.495
L468.112 257.495" style="fill:#0000ff;"/>
   </g>
   <g id="patch_46">
    <path clip-path="url(#p55e2b37eef)" d="
M478.024 257.495
L478.024 257.495
L487.935 257.495
L487.935 257.495
L478.024 257.495" style="fill:#0000ff;"/>
   </g>
   <g id="patch_47">
    <path clip-path="url(#p55e2b37eef)" d="
M487.935 257.495
L487.935 12.7129
L497.846 12.7129
L497.846 257.495
L487.935 257.495" style="fill:#0000ff;"/>
   </g>
   <g id="patch_48">
    <path clip-path="url(#p55e2b37eef)" d="
M497.846 257.495
L497.846 257.495
L507.757 257.495
L507.757 257.495
L497.846 257.495" style="fill:#0000ff;"/>
   </g>
   <g id="patch_49">
    <path clip-path="url(#p55e2b37eef)" d="
M507.757 257.495
L507.757 257.495
L517.668 257.495
L517.668 257.495
L507.757 257.495" style="fill:#0000ff;"/>
   </g>
   <g id="patch_50">
    <path clip-path="url(#p55e2b37eef)" d="
M517.668 257.495
L517.668 257.495
L527.579 257.495
L527.579 257.495
L517.668 257.495" style="fill:#0000ff;"/>
   </g>
   <g id="patch_51">
    <path clip-path="url(#p55e2b37eef)" d="
M527.579 257.495
L527.579 257.495
L537.491 257.495
L537.491 257.495
L527.579 257.495" style="fill:#0000ff;"/>
   </g>
   <g id="patch_52">
    <path clip-path="url(#p55e2b37eef)" d="
M537.491 257.495
L537.491 13.0279
L547.402 13.0279
L547.402 257.495
L537.491 257.495" style="fill:#0000ff;"/>
   </g>
   <g id="matplotlib.axis_1">
    <g id="xtick_1">
     <g id="line2d_1">
      <defs>
       <path d="
M0 0
L0 -4" id="m1406014810"/>
      </defs>
      <g>
       <use style="stroke:#000000;stroke-linecap:butt;stroke-width:0.5;" x="161.96789797" xlink:href="#m1406014810" y="257.494758605"/>
      </g>
     </g>
     <g id="text_1">
      <!-- 5 -->
      <defs>
       <path d="
M10.7969 72.9062
L49.5156 72.9062
L49.5156 64.5938
L19.8281 64.5938
L19.8281 46.7344
Q21.9688 47.4688 24.1094 47.8281
Q26.2656 48.1875 28.4219 48.1875
Q40.625 48.1875 47.75 41.5
Q54.8906 34.8125 54.8906 23.3906
Q54.8906 11.625 47.5625 5.09375
Q40.2344 -1.42188 26.9062 -1.42188
Q22.3125 -1.42188 17.5469 -0.640625
Q12.7969 0.140625 7.71875 1.70312
L7.71875 11.625
Q12.1094 9.23438 16.7969 8.0625
Q21.4844 6.89062 26.7031 6.89062
Q35.1562 6.89062 40.0781 11.3281
Q45.0156 15.7656 45.0156 23.3906
Q45.0156 31 40.0781 35.4375
Q35.1562 39.8906 26.7031 39.8906
Q22.75 39.8906 18.8125 39.0156
Q14.8906 38.1406 10.7969 36.2812
z
" id="BitstreamVeraSans-Roman-35"/>
      </defs>
      <g transform="translate(159.60930422 268.785383605)scale(0.1 -0.1)">
       <use xlink:href="#BitstreamVeraSans-Roman-35"/>
      </g>
     </g>
    </g>
    <g id="xtick_2">
     <g id="line2d_2">
      <defs>
       <path d="
M0 0
L0 -4" id="m1406014810"/>
      </defs>
      <g>
       <use style="stroke:#000000;stroke-linecap:butt;stroke-width:0.5;" x="299.6228125" xlink:href="#m1406014810" y="257.494758605"/>
      </g>
     </g>
     <g id="text_2">
      <!-- 10 -->
      <defs>
       <path d="
M31.7812 66.4062
Q24.1719 66.4062 20.3281 58.9062
Q16.5 51.4219 16.5 36.375
Q16.5 21.3906 20.3281 13.8906
Q24.1719 6.39062 31.7812 6.39062
Q39.4531 6.39062 43.2812 13.8906
Q47.125 21.3906 47.125 36.375
Q47.125 51.4219 43.2812 58.9062
Q39.4531 66.4062 31.7812 66.4062
M31.7812 74.2188
Q44.0469 74.2188 50.5156 64.5156
Q56.9844 54.8281 56.9844 36.375
Q56.9844 17.9688 50.5156 8.26562
Q44.0469 -1.42188 31.7812 -1.42188
Q19.5312 -1.42188 13.0625 8.26562
Q6.59375 17.9688 6.59375 36.375
Q6.59375 54.8281 13.0625 64.5156
Q19.5312 74.2188 31.7812 74.2188" id="BitstreamVeraSans-Roman-30"/>
       <path d="
M12.4062 8.29688
L28.5156 8.29688
L28.5156 63.9219
L10.9844 60.4062
L10.9844 69.3906
L28.4219 72.9062
L38.2812 72.9062
L38.2812 8.29688
L54.3906 8.29688
L54.3906 0
L12.4062 0
z
" id="BitstreamVeraSans-Roman-31"/>
      </defs>
      <g transform="translate(294.1415625 268.916633605)scale(0.1 -0.1)">
       <use xlink:href="#BitstreamVeraSans-Roman-31"/>
       <use x="63.623046875" xlink:href="#BitstreamVeraSans-Roman-30"/>
      </g>
     </g>
    </g>
    <g id="xtick_3">
     <g id="line2d_3">
      <defs>
       <path d="
M0 0
L0 -4" id="m1406014810"/>
      </defs>
      <g>
       <use style="stroke:#000000;stroke-linecap:butt;stroke-width:0.5;" x="437.27772703" xlink:href="#m1406014810" y="257.494758605"/>
      </g>
     </g>
     <g id="text_3">
      <!-- 15 -->
      <g transform="translate(431.90116453 268.785383605)scale(0.1 -0.1)">
       <use xlink:href="#BitstreamVeraSans-Roman-31"/>
       <use x="63.623046875" xlink:href="#BitstreamVeraSans-Roman-35"/>
      </g>
     </g>
    </g>
    <g id="xtick_4">
     <g id="line2d_4">
      <defs>
       <path d="
M0 0
L0 -2" id="m32adf6fa33"/>
      </defs>
      <g>
       <use style="stroke:#000000;stroke-linecap:butt;stroke-width:0.5;" x="51.8439663462" xlink:href="#m32adf6fa33" y="257.494758605"/>
      </g>
     </g>
    </g>
    <g id="xtick_5">
     <g id="line2d_5">
      <defs>
       <path d="
M0 0
L0 -2" id="m32adf6fa33"/>
      </defs>
      <g>
       <use style="stroke:#000000;stroke-linecap:butt;stroke-width:0.5;" x="79.3749492521" xlink:href="#m32adf6fa33" y="257.494758605"/>
      </g>
     </g>
    </g>
    <g id="xtick_6">
     <g id="line2d_6">
      <defs>
       <path d="
M0 0
L0 -2" id="m32adf6fa33"/>
      </defs>
      <g>
       <use style="stroke:#000000;stroke-linecap:butt;stroke-width:0.5;" x="106.905932158" xlink:href="#m32adf6fa33" y="257.494758605"/>
      </g>
     </g>
    </g>
    <g id="xtick_7">
     <g id="line2d_7">
      <defs>
       <path d="
M0 0
L0 -2" id="m32adf6fa33"/>
      </defs>
      <g>
       <use style="stroke:#000000;stroke-linecap:butt;stroke-width:0.5;" x="134.436915064" xlink:href="#m32adf6fa33" y="257.494758605"/>
      </g>
     </g>
    </g>
    <g id="xtick_8">
     <g id="line2d_8">
      <defs>
       <path d="
M0 0
L0 -2" id="m32adf6fa33"/>
      </defs>
      <g>
       <use style="stroke:#000000;stroke-linecap:butt;stroke-width:0.5;" x="189.498880876" xlink:href="#m32adf6fa33" y="257.494758605"/>
      </g>
     </g>
    </g>
    <g id="xtick_9">
     <g id="line2d_9">
      <defs>
       <path d="
M0 0
L0 -2" id="m32adf6fa33"/>
      </defs>
      <g>
       <use style="stroke:#000000;stroke-linecap:butt;stroke-width:0.5;" x="217.029863782" xlink:href="#m32adf6fa33" y="257.494758605"/>
      </g>
     </g>
    </g>
    <g id="xtick_10">
     <g id="line2d_10">
      <defs>
       <path d="
M0 0
L0 -2" id="m32adf6fa33"/>
      </defs>
      <g>
       <use style="stroke:#000000;stroke-linecap:butt;stroke-width:0.5;" x="244.560846688" xlink:href="#m32adf6fa33" y="257.494758605"/>
      </g>
     </g>
    </g>
    <g id="xtick_11">
     <g id="line2d_11">
      <defs>
       <path d="
M0 0
L0 -2" id="m32adf6fa33"/>
      </defs>
      <g>
       <use style="stroke:#000000;stroke-linecap:butt;stroke-width:0.5;" x="272.091829594" xlink:href="#m32adf6fa33" y="257.494758605"/>
      </g>
     </g>
    </g>
    <g id="xtick_12">
     <g id="line2d_12">
      <defs>
       <path d="
M0 0
L0 -2" id="m32adf6fa33"/>
      </defs>
      <g>
       <use style="stroke:#000000;stroke-linecap:butt;stroke-width:0.5;" x="327.153795406" xlink:href="#m32adf6fa33" y="257.494758605"/>
      </g>
     </g>
    </g>
    <g id="xtick_13">
     <g id="line2d_13">
      <defs>
       <path d="
M0 0
L0 -2" id="m32adf6fa33"/>
      </defs>
      <g>
       <use style="stroke:#000000;stroke-linecap:butt;stroke-width:0.5;" x="354.684778312" xlink:href="#m32adf6fa33" y="257.494758605"/>
      </g>
     </g>
    </g>
    <g id="xtick_14">
     <g id="line2d_14">
      <defs>
       <path d="
M0 0
L0 -2" id="m32adf6fa33"/>
      </defs>
      <g>
       <use style="stroke:#000000;stroke-linecap:butt;stroke-width:0.5;" x="382.215761218" xlink:href="#m32adf6fa33" y="257.494758605"/>
      </g>
     </g>
    </g>
    <g id="xtick_15">
     <g id="line2d_15">
      <defs>
       <path d="
M0 0
L0 -2" id="m32adf6fa33"/>
      </defs>
      <g>
       <use style="stroke:#000000;stroke-linecap:butt;stroke-width:0.5;" x="409.746744124" xlink:href="#m32adf6fa33" y="257.494758605"/>
      </g>
     </g>
    </g>
    <g id="xtick_16">
     <g id="line2d_16">
      <defs>
       <path d="
M0 0
L0 -2" id="m32adf6fa33"/>
      </defs>
      <g>
       <use style="stroke:#000000;stroke-linecap:butt;stroke-width:0.5;" x="464.808709936" xlink:href="#m32adf6fa33" y="257.494758605"/>
      </g>
     </g>
    </g>
    <g id="xtick_17">
     <g id="line2d_17">
      <defs>
       <path d="
M0 0
L0 -2" id="m32adf6fa33"/>
      </defs>
      <g>
       <use style="stroke:#000000;stroke-linecap:butt;stroke-width:0.5;" x="492.339692842" xlink:href="#m32adf6fa33" y="257.494758605"/>
      </g>
     </g>
    </g>
    <g id="xtick_18">
     <g id="line2d_18">
      <defs>
       <path d="
M0 0
L0 -2" id="m32adf6fa33"/>
      </defs>
      <g>
       <use style="stroke:#000000;stroke-linecap:butt;stroke-width:0.5;" x="519.870675748" xlink:href="#m32adf6fa33" y="257.494758605"/>
      </g>
     </g>
    </g>
   </g>
   <g id="matplotlib.axis_2">
    <g id="ytick_1">
     <g id="line2d_19">
      <defs>
       <path d="
M0 0
L4 0" id="m82d4af64b2"/>
      </defs>
      <g>
       <use style="stroke:#000000;stroke-linecap:butt;stroke-width:0.5;" x="31.9328125" xlink:href="#m82d4af64b2" y="257.494758605"/>
      </g>
     </g>
     <g id="text_4">
      <!-- 0 -->
      <g transform="translate(22.89375 261.134602355)scale(0.1 -0.1)">
       <use xlink:href="#BitstreamVeraSans-Roman-30"/>
      </g>
     </g>
    </g>
    <g id="ytick_2">
     <g id="line2d_20">
      <defs>
       <path d="
M0 0
L4 0" id="m82d4af64b2"/>
      </defs>
      <g>
       <use style="stroke:#000000;stroke-linecap:butt;stroke-width:0.5;" x="31.9328125" xlink:href="#m82d4af64b2" y="222.278654697"/>
      </g>
     </g>
     <g id="text_5">
      <!-- 0.05 -->
      <defs>
       <path d="
M10.6875 12.4062
L21 12.4062
L21 0
L10.6875 0
z
" id="BitstreamVeraSans-Roman-2e"/>
      </defs>
      <g transform="translate(7.2 225.918498447)scale(0.1 -0.1)">
       <use xlink:href="#BitstreamVeraSans-Roman-30"/>
       <use x="63.623046875" xlink:href="#BitstreamVeraSans-Roman-2e"/>
       <use x="95.41015625" xlink:href="#BitstreamVeraSans-Roman-30"/>
       <use x="159.033203125" xlink:href="#BitstreamVeraSans-Roman-35"/>
      </g>
     </g>
    </g>
    <g id="ytick_3">
     <g id="line2d_21">
      <defs>
       <path d="
M0 0
L4 0" id="m82d4af64b2"/>
      </defs>
      <g>
       <use style="stroke:#000000;stroke-linecap:butt;stroke-width:0.5;" x="31.9328125" xlink:href="#m82d4af64b2" y="187.062550789"/>
      </g>
     </g>
     <g id="text_6">
      <!-- 0.1 -->
      <g transform="translate(13.6125 190.702394539)scale(0.1 -0.1)">
       <use xlink:href="#BitstreamVeraSans-Roman-30"/>
       <use x="63.623046875" xlink:href="#BitstreamVeraSans-Roman-2e"/>
       <use x="95.41015625" xlink:href="#BitstreamVeraSans-Roman-31"/>
      </g>
     </g>
    </g>
    <g id="ytick_4">
     <g id="line2d_22">
      <defs>
       <path d="
M0 0
L4 0" id="m82d4af64b2"/>
      </defs>
      <g>
       <use style="stroke:#000000;stroke-linecap:butt;stroke-width:0.5;" x="31.9328125" xlink:href="#m82d4af64b2" y="151.846446881"/>
      </g>
     </g>
     <g id="text_7">
      <!-- 0.15 -->
      <g transform="translate(7.2 155.486290631)scale(0.1 -0.1)">
       <use xlink:href="#BitstreamVeraSans-Roman-30"/>
       <use x="63.623046875" xlink:href="#BitstreamVeraSans-Roman-2e"/>
       <use x="95.41015625" xlink:href="#BitstreamVeraSans-Roman-31"/>
       <use x="159.033203125" xlink:href="#BitstreamVeraSans-Roman-35"/>
      </g>
     </g>
    </g>
    <g id="ytick_5">
     <g id="line2d_23">
      <defs>
       <path d="
M0 0
L4 0" id="m82d4af64b2"/>
      </defs>
      <g>
       <use style="stroke:#000000;stroke-linecap:butt;stroke-width:0.5;" x="31.9328125" xlink:href="#m82d4af64b2" y="116.630342974"/>
      </g>
     </g>
     <g id="text_8">
      <!-- 0.2 -->
      <defs>
       <path d="
M19.1875 8.29688
L53.6094 8.29688
L53.6094 0
L7.32812 0
L7.32812 8.29688
Q12.9375 14.1094 22.625 23.8906
Q32.3281 33.6875 34.8125 36.5312
Q39.5469 41.8438 41.4219 45.5312
Q43.3125 49.2188 43.3125 52.7812
Q43.3125 58.5938 39.2344 62.25
Q35.1562 65.9219 28.6094 65.9219
Q23.9688 65.9219 18.8125 64.3125
Q13.6719 62.7031 7.8125 59.4219
L7.8125 69.3906
Q13.7656 71.7812 18.9375 73
Q24.125 74.2188 28.4219 74.2188
Q39.75 74.2188 46.4844 68.5469
Q53.2188 62.8906 53.2188 53.4219
Q53.2188 48.9219 51.5312 44.8906
Q49.8594 40.875 45.4062 35.4062
Q44.1875 33.9844 37.6406 27.2188
Q31.1094 20.4531 19.1875 8.29688" id="BitstreamVeraSans-Roman-32"/>
      </defs>
      <g transform="translate(13.690625 120.270186724)scale(0.1 -0.1)">
       <use xlink:href="#BitstreamVeraSans-Roman-30"/>
       <use x="63.623046875" xlink:href="#BitstreamVeraSans-Roman-2e"/>
       <use x="95.41015625" xlink:href="#BitstreamVeraSans-Roman-32"/>
      </g>
     </g>
    </g>
    <g id="ytick_6">
     <g id="line2d_24">
      <defs>
       <path d="
M0 0
L4 0" id="m82d4af64b2"/>
      </defs>
      <g>
       <use style="stroke:#000000;stroke-linecap:butt;stroke-width:0.5;" x="31.9328125" xlink:href="#m82d4af64b2" y="81.4142390657"/>
      </g>
     </g>
     <g id="text_9">
      <!-- 0.25 -->
      <g transform="translate(7.2 85.0540828157)scale(0.1 -0.1)">
       <use xlink:href="#BitstreamVeraSans-Roman-30"/>
       <use x="63.623046875" xlink:href="#BitstreamVeraSans-Roman-2e"/>
       <use x="95.41015625" xlink:href="#BitstreamVeraSans-Roman-32"/>
       <use x="159.033203125" xlink:href="#BitstreamVeraSans-Roman-35"/>
      </g>
     </g>
    </g>
    <g id="ytick_7">
     <g id="line2d_25">
      <defs>
       <path d="
M0 0
L4 0" id="m82d4af64b2"/>
      </defs>
      <g>
       <use style="stroke:#000000;stroke-linecap:butt;stroke-width:0.5;" x="31.9328125" xlink:href="#m82d4af64b2" y="46.1981351578"/>
      </g>
     </g>
     <g id="text_10">
      <!-- 0.3 -->
      <defs>
       <path d="
M40.5781 39.3125
Q47.6562 37.7969 51.625 33
Q55.6094 28.2188 55.6094 21.1875
Q55.6094 10.4062 48.1875 4.48438
Q40.7656 -1.42188 27.0938 -1.42188
Q22.5156 -1.42188 17.6562 -0.515625
Q12.7969 0.390625 7.625 2.20312
L7.625 11.7188
Q11.7188 9.32812 16.5938 8.10938
Q21.4844 6.89062 26.8125 6.89062
Q36.0781 6.89062 40.9375 10.5469
Q45.7969 14.2031 45.7969 21.1875
Q45.7969 27.6406 41.2812 31.2656
Q36.7656 34.9062 28.7188 34.9062
L20.2188 34.9062
L20.2188 43.0156
L29.1094 43.0156
Q36.375 43.0156 40.2344 45.9219
Q44.0938 48.8281 44.0938 54.2969
Q44.0938 59.9062 40.1094 62.9062
Q36.1406 65.9219 28.7188 65.9219
Q24.6562 65.9219 20.0156 65.0312
Q15.375 64.1562 9.8125 62.3125
L9.8125 71.0938
Q15.4375 72.6562 20.3438 73.4375
Q25.25 74.2188 29.5938 74.2188
Q40.8281 74.2188 47.3594 69.1094
Q53.9062 64.0156 53.9062 55.3281
Q53.9062 49.2656 50.4375 45.0938
Q46.9688 40.9219 40.5781 39.3125" id="BitstreamVeraSans-Roman-33"/>
      </defs>
      <g transform="translate(13.490625 49.8379789078)scale(0.1 -0.1)">
       <use xlink:href="#BitstreamVeraSans-Roman-30"/>
       <use x="63.623046875" xlink:href="#BitstreamVeraSans-Roman-2e"/>
       <use x="95.41015625" xlink:href="#BitstreamVeraSans-Roman-33"/>
      </g>
     </g>
    </g>
    <g id="ytick_8">
     <g id="line2d_26">
      <defs>
       <path d="
M0 0
L4 0" id="m82d4af64b2"/>
      </defs>
      <g>
       <use style="stroke:#000000;stroke-linecap:butt;stroke-width:0.5;" x="31.9328125" xlink:href="#m82d4af64b2" y="10.98203125"/>
      </g>
     </g>
     <g id="text_11">
      <!-- 0.35 -->
      <g transform="translate(7.2 14.621875)scale(0.1 -0.1)">
       <use xlink:href="#BitstreamVeraSans-Roman-30"/>
       <use x="63.623046875" xlink:href="#BitstreamVeraSans-Roman-2e"/>
       <use x="95.41015625" xlink:href="#BitstreamVeraSans-Roman-33"/>
       <use x="159.033203125" xlink:href="#BitstreamVeraSans-Roman-35"/>
      </g>
     </g>
    </g>
    <g id="ytick_9">
     <g id="line2d_27">
      <defs>
       <path d="
M0 0
L2 0" id="m054d3e34c9"/>
      </defs>
      <g>
       <use style="stroke:#000000;stroke-linecap:butt;stroke-width:0.5;" x="31.9328125" xlink:href="#m054d3e34c9" y="250.451537823"/>
      </g>
     </g>
    </g>
    <g id="ytick_10">
     <g id="line2d_28">
      <defs>
       <path d="
M0 0
L2 0" id="m054d3e34c9"/>
      </defs>
      <g>
       <use style="stroke:#000000;stroke-linecap:butt;stroke-width:0.5;" x="31.9328125" xlink:href="#m054d3e34c9" y="243.408317042"/>
      </g>
     </g>
    </g>
    <g id="ytick_11">
     <g id="line2d_29">
      <defs>
       <path d="
M0 0
L2 0" id="m054d3e34c9"/>
      </defs>
      <g>
       <use style="stroke:#000000;stroke-linecap:butt;stroke-width:0.5;" x="31.9328125" xlink:href="#m054d3e34c9" y="236.36509626"/>
      </g>
     </g>
    </g>
    <g id="ytick_12">
     <g id="line2d_30">
      <defs>
       <path d="
M0 0
L2 0" id="m054d3e34c9"/>
      </defs>
      <g>
       <use style="stroke:#000000;stroke-linecap:butt;stroke-width:0.5;" x="31.9328125" xlink:href="#m054d3e34c9" y="229.321875479"/>
      </g>
     </g>
    </g>
    <g id="ytick_13">
     <g id="line2d_31">
      <defs>
       <path d="
M0 0
L2 0" id="m054d3e34c9"/>
      </defs>
      <g>
       <use style="stroke:#000000;stroke-linecap:butt;stroke-width:0.5;" x="31.9328125" xlink:href="#m054d3e34c9" y="215.235433916"/>
      </g>
     </g>
    </g>
    <g id="ytick_14">
     <g id="line2d_32">
      <defs>
       <path d="
M0 0
L2 0" id="m054d3e34c9"/>
      </defs>
      <g>
       <use style="stroke:#000000;stroke-linecap:butt;stroke-width:0.5;" x="31.9328125" xlink:href="#m054d3e34c9" y="208.192213134"/>
      </g>
     </g>
    </g>
    <g id="ytick_15">
     <g id="line2d_33">
      <defs>
       <path d="
M0 0
L2 0" id="m054d3e34c9"/>
      </defs>
      <g>
       <use style="stroke:#000000;stroke-linecap:butt;stroke-width:0.5;" x="31.9328125" xlink:href="#m054d3e34c9" y="201.148992352"/>
      </g>
     </g>
    </g>
    <g id="ytick_16">
     <g id="line2d_34">
      <defs>
       <path d="
M0 0
L2 0" id="m054d3e34c9"/>
      </defs>
      <g>
       <use style="stroke:#000000;stroke-linecap:butt;stroke-width:0.5;" x="31.9328125" xlink:href="#m054d3e34c9" y="194.105771571"/>
      </g>
     </g>
    </g>
    <g id="ytick_17">
     <g id="line2d_35">
      <defs>
       <path d="
M0 0
L2 0" id="m054d3e34c9"/>
      </defs>
      <g>
       <use style="stroke:#000000;stroke-linecap:butt;stroke-width:0.5;" x="31.9328125" xlink:href="#m054d3e34c9" y="180.019330008"/>
      </g>
     </g>
    </g>
    <g id="ytick_18">
     <g id="line2d_36">
      <defs>
       <path d="
M0 0
L2 0" id="m054d3e34c9"/>
      </defs>
      <g>
       <use style="stroke:#000000;stroke-linecap:butt;stroke-width:0.5;" x="31.9328125" xlink:href="#m054d3e34c9" y="172.976109226"/>
      </g>
     </g>
    </g>
    <g id="ytick_19">
     <g id="line2d_37">
      <defs>
       <path d="
M0 0
L2 0" id="m054d3e34c9"/>
      </defs>
      <g>
       <use style="stroke:#000000;stroke-linecap:butt;stroke-width:0.5;" x="31.9328125" xlink:href="#m054d3e34c9" y="165.932888445"/>
      </g>
     </g>
    </g>
    <g id="ytick_20">
     <g id="line2d_38">
      <defs>
       <path d="
M0 0
L2 0" id="m054d3e34c9"/>
      </defs>
      <g>
       <use style="stroke:#000000;stroke-linecap:butt;stroke-width:0.5;" x="31.9328125" xlink:href="#m054d3e34c9" y="158.889667663"/>
      </g>
     </g>
    </g>
    <g id="ytick_21">
     <g id="line2d_39">
      <defs>
       <path d="
M0 0
L2 0" id="m054d3e34c9"/>
      </defs>
      <g>
       <use style="stroke:#000000;stroke-linecap:butt;stroke-width:0.5;" x="31.9328125" xlink:href="#m054d3e34c9" y="144.8032261"/>
      </g>
     </g>
    </g>
    <g id="ytick_22">
     <g id="line2d_40">
      <defs>
       <path d="
M0 0
L2 0" id="m054d3e34c9"/>
      </defs>
      <g>
       <use style="stroke:#000000;stroke-linecap:butt;stroke-width:0.5;" x="31.9328125" xlink:href="#m054d3e34c9" y="137.760005318"/>
      </g>
     </g>
    </g>
    <g id="ytick_23">
     <g id="line2d_41">
      <defs>
       <path d="
M0 0
L2 0" id="m054d3e34c9"/>
      </defs>
      <g>
       <use style="stroke:#000000;stroke-linecap:butt;stroke-width:0.5;" x="31.9328125" xlink:href="#m054d3e34c9" y="130.716784537"/>
      </g>
     </g>
    </g>
    <g id="ytick_24">
     <g id="line2d_42">
      <defs>
       <path d="
M0 0
L2 0" id="m054d3e34c9"/>
      </defs>
      <g>
       <use style="stroke:#000000;stroke-linecap:butt;stroke-width:0.5;" x="31.9328125" xlink:href="#m054d3e34c9" y="123.673563755"/>
      </g>
     </g>
    </g>
    <g id="ytick_25">
     <g id="line2d_43">
      <defs>
       <path d="
M0 0
L2 0" id="m054d3e34c9"/>
      </defs>
      <g>
       <use style="stroke:#000000;stroke-linecap:butt;stroke-width:0.5;" x="31.9328125" xlink:href="#m054d3e34c9" y="109.587122192"/>
      </g>
     </g>
    </g>
    <g id="ytick_26">
     <g id="line2d_44">
      <defs>
       <path d="
M0 0
L2 0" id="m054d3e34c9"/>
      </defs>
      <g>
       <use style="stroke:#000000;stroke-linecap:butt;stroke-width:0.5;" x="31.9328125" xlink:href="#m054d3e34c9" y="102.54390141"/>
      </g>
     </g>
    </g>
    <g id="ytick_27">
     <g id="line2d_45">
      <defs>
       <path d="
M0 0
L2 0" id="m054d3e34c9"/>
      </defs>
      <g>
       <use style="stroke:#000000;stroke-linecap:butt;stroke-width:0.5;" x="31.9328125" xlink:href="#m054d3e34c9" y="95.5006806288"/>
      </g>
     </g>
    </g>
    <g id="ytick_28">
     <g id="line2d_46">
      <defs>
       <path d="
M0 0
L2 0" id="m054d3e34c9"/>
      </defs>
      <g>
       <use style="stroke:#000000;stroke-linecap:butt;stroke-width:0.5;" x="31.9328125" xlink:href="#m054d3e34c9" y="88.4574598473"/>
      </g>
     </g>
    </g>
    <g id="ytick_29">
     <g id="line2d_47">
      <defs>
       <path d="
M0 0
L2 0" id="m054d3e34c9"/>
      </defs>
      <g>
       <use style="stroke:#000000;stroke-linecap:butt;stroke-width:0.5;" x="31.9328125" xlink:href="#m054d3e34c9" y="74.3710182841"/>
      </g>
     </g>
    </g>
    <g id="ytick_30">
     <g id="line2d_48">
      <defs>
       <path d="
M0 0
L2 0" id="m054d3e34c9"/>
      </defs>
      <g>
       <use style="stroke:#000000;stroke-linecap:butt;stroke-width:0.5;" x="31.9328125" xlink:href="#m054d3e34c9" y="67.3277975026"/>
      </g>
     </g>
    </g>
    <g id="ytick_31">
     <g id="line2d_49">
      <defs>
       <path d="
M0 0
L2 0" id="m054d3e34c9"/>
      </defs>
      <g>
       <use style="stroke:#000000;stroke-linecap:butt;stroke-width:0.5;" x="31.9328125" xlink:href="#m054d3e34c9" y="60.284576721"/>
      </g>
     </g>
    </g>
    <g id="ytick_32">
     <g id="line2d_50">
      <defs>
       <path d="
M0 0
L2 0" id="m054d3e34c9"/>
      </defs>
      <g>
       <use style="stroke:#000000;stroke-linecap:butt;stroke-width:0.5;" x="31.9328125" xlink:href="#m054d3e34c9" y="53.2413559394"/>
      </g>
     </g>
    </g>
    <g id="ytick_33">
     <g id="line2d_51">
      <defs>
       <path d="
M0 0
L2 0" id="m054d3e34c9"/>
      </defs>
      <g>
       <use style="stroke:#000000;stroke-linecap:butt;stroke-width:0.5;" x="31.9328125" xlink:href="#m054d3e34c9" y="39.1549143763"/>
      </g>
     </g>
    </g>
    <g id="ytick_34">
     <g id="line2d_52">
      <defs>
       <path d="
M0 0
L2 0" id="m054d3e34c9"/>
      </defs>
      <g>
       <use style="stroke:#000000;stroke-linecap:butt;stroke-width:0.5;" x="31.9328125" xlink:href="#m054d3e34c9" y="32.1116935947"/>
      </g>
     </g>
    </g>
    <g id="ytick_35">
     <g id="line2d_53">
      <defs>
       <path d="
M0 0
L2 0" id="m054d3e34c9"/>
      </defs>
      <g>
       <use style="stroke:#000000;stroke-linecap:butt;stroke-width:0.5;" x="31.9328125" xlink:href="#m054d3e34c9" y="25.0684728131"/>
      </g>
     </g>
    </g>
    <g id="ytick_36">
     <g id="line2d_54">
      <defs>
       <path d="
M0 0
L2 0" id="m054d3e34c9"/>
      </defs>
      <g>
       <use style="stroke:#000000;stroke-linecap:butt;stroke-width:0.5;" x="31.9328125" xlink:href="#m054d3e34c9" y="18.0252520316"/>
      </g>
     </g>
    </g>
   </g>
   <g id="patch_53">
    <path d="
M41.9328 257.495
L557.313 257.495" style="fill:none;stroke:#000000;stroke-width:0.8;"/>
   </g>
   <g id="patch_54">
    <path d="
M31.9328 262.391
L31.9328 7.80225" style="fill:none;stroke:#000000;stroke-width:0.8;"/>
   </g>
  </g>
 </g>
 <defs>
  <clipPath id="p55e2b37eef">
   <rect height="254.588435396" width="515.38" x="41.9328125" y="7.80225465881"/>
  </clipPath>
 </defs>
</svg>
