<?xml version="1.0" encoding="utf-8" standalone="no"?>
<!DOCTYPE svg PUBLIC "-//W3C//DTD SVG 1.1//EN"
  "http://www.w3.org/Graphics/SVG/1.1/DTD/svg11.dtd">
<!-- Created with matplotlib (http://matplotlib.sourceforge.net/) -->
<svg height="276pt" version="1.1" viewBox="0 0 564 276" width="564pt" xmlns="http://www.w3.org/2000/svg" xmlns:xlink="http://www.w3.org/1999/xlink">
 <defs>
  <style type="text/css">
*{stroke-linecap:square;stroke-linejoin:round;}
  </style>
 </defs>
 <g id="figure_1">
  <g id="patch_1">
   <path d="
M0 276.365
L564.46 276.365
L564.46 0
L0 0
z
" style="fill:#ffffff;"/>
  </g>
  <g id="axes_1">
   <g id="patch_2">
    <path d="
M42.2453 262.511
L557.26 262.511
L557.26 7.2
L42.2453 7.2
z
" style="fill:#ffffff;"/>
   </g>
   <g id="patch_3">
    <path clip-path="url(#pe2b07c9ed6)" d="
M52.1494 257.601
L52.1494 13.6414
L62.0536 13.6414
L62.0536 257.601
L52.1494 257.601" style="fill:#0000ff;"/>
   </g>
   <g id="patch_4">
    <path clip-path="url(#pe2b07c9ed6)" d="
M62.0536 257.601
L62.0536 12.3749
L71.9577 12.3749
L71.9577 257.601
L62.0536 257.601" style="fill:#0000ff;"/>
   </g>
   <g id="patch_5">
    <path clip-path="url(#pe2b07c9ed6)" d="
M71.9577 257.601
L71.9577 257.601
L81.8618 257.601
L81.8618 257.601
L71.9577 257.601" style="fill:#0000ff;"/>
   </g>
   <g id="patch_6">
    <path clip-path="url(#pe2b07c9ed6)" d="
M81.8618 257.601
L81.8618 257.594
L91.7659 257.594
L91.7659 257.601
L81.8618 257.601" style="fill:#0000ff;"/>
   </g>
   <g id="patch_7">
    <path clip-path="url(#pe2b07c9ed6)" d="
M91.7659 257.601
L91.7659 12.9493
L101.67 12.9493
L101.67 257.601
L91.7659 257.601" style="fill:#0000ff;"/>
   </g>
   <g id="patch_8">
    <path clip-path="url(#pe2b07c9ed6)" d="
M101.67 257.601
L101.67 257.601
L111.574 257.601
L111.574 257.601
L101.67 257.601" style="fill:#0000ff;"/>
   </g>
   <g id="patch_9">
    <path clip-path="url(#pe2b07c9ed6)" d="
M111.574 257.601
L111.574 12.8167
L121.478 12.8167
L121.478 257.601
L111.574 257.601" style="fill:#0000ff;"/>
   </g>
   <g id="patch_10">
    <path clip-path="url(#pe2b07c9ed6)" d="
M121.478 257.601
L121.478 257.601
L131.382 257.601
L131.382 257.601
L121.478 257.601" style="fill:#0000ff;"/>
   </g>
   <g id="patch_11">
    <path clip-path="url(#pe2b07c9ed6)" d="
M131.382 257.601
L131.382 257.601
L141.287 257.601
L141.287 257.601
L131.382 257.601" style="fill:#0000ff;"/>
   </g>
   <g id="patch_12">
    <path clip-path="url(#pe2b07c9ed6)" d="
M141.287 257.601
L141.287 12.1098
L151.191 12.1098
L151.191 257.601
L141.287 257.601" style="fill:#0000ff;"/>
   </g>
   <g id="patch_13">
    <path clip-path="url(#pe2b07c9ed6)" d="
M151.191 257.601
L151.191 257.601
L161.095 257.601
L161.095 257.601
L151.191 257.601" style="fill:#0000ff;"/>
   </g>
   <g id="patch_14">
    <path clip-path="url(#pe2b07c9ed6)" d="
M161.095 257.601
L161.095 12.7946
L170.999 12.7946
L170.999 257.601
L161.095 257.601" style="fill:#0000ff;"/>
   </g>
   <g id="patch_15">
    <path clip-path="url(#pe2b07c9ed6)" d="
M170.999 257.601
L170.999 257.601
L180.903 257.601
L180.903 257.601
L170.999 257.601" style="fill:#0000ff;"/>
   </g>
   <g id="patch_16">
    <path clip-path="url(#pe2b07c9ed6)" d="
M180.903 257.601
L180.903 257.601
L190.807 257.601
L190.807 257.601
L180.903 257.601" style="fill:#0000ff;"/>
   </g>
   <g id="patch_17">
    <path clip-path="url(#pe2b07c9ed6)" d="
M190.807 257.601
L190.807 12.8977
L200.711 12.8977
L200.711 257.601
L190.807 257.601" style="fill:#0000ff;"/>
   </g>
   <g id="patch_18">
    <path clip-path="url(#pe2b07c9ed6)" d="
M200.711 257.601
L200.711 257.601
L210.615 257.601
L210.615 257.601
L200.711 257.601" style="fill:#0000ff;"/>
   </g>
   <g id="patch_19">
    <path clip-path="url(#pe2b07c9ed6)" d="
M210.615 257.601
L210.615 257.594
L220.52 257.594
L220.52 257.601
L210.615 257.601" style="fill:#0000ff;"/>
   </g>
   <g id="patch_20">
    <path clip-path="url(#pe2b07c9ed6)" d="
M220.52 257.601
L220.52 257.601
L230.424 257.601
L230.424 257.601
L220.52 257.601" style="fill:#0000ff;"/>
   </g>
   <g id="patch_21">
    <path clip-path="url(#pe2b07c9ed6)" d="
M230.424 257.601
L230.424 257.601
L240.328 257.601
L240.328 257.601
L230.424 257.601" style="fill:#0000ff;"/>
   </g>
   <g id="patch_22">
    <path clip-path="url(#pe2b07c9ed6)" d="
M240.328 257.601
L240.328 12.8535
L250.232 12.8535
L250.232 257.601
L240.328 257.601" style="fill:#0000ff;"/>
   </g>
   <g id="patch_23">
    <path clip-path="url(#pe2b07c9ed6)" d="
M250.232 257.601
L250.232 12.6768
L260.136 12.6768
L260.136 257.601
L250.232 257.601" style="fill:#0000ff;"/>
   </g>
   <g id="patch_24">
    <path clip-path="url(#pe2b07c9ed6)" d="
M260.136 257.601
L260.136 257.601
L270.04 257.601
L270.04 257.601
L260.136 257.601" style="fill:#0000ff;"/>
   </g>
   <g id="patch_25">
    <path clip-path="url(#pe2b07c9ed6)" d="
M270.04 257.601
L270.04 257.601
L279.944 257.601
L279.944 257.601
L270.04 257.601" style="fill:#0000ff;"/>
   </g>
   <g id="patch_26">
    <path clip-path="url(#pe2b07c9ed6)" d="
M279.944 257.601
L279.944 257.601
L289.848 257.601
L289.848 257.601
L279.944 257.601" style="fill:#0000ff;"/>
   </g>
   <g id="patch_27">
    <path clip-path="url(#pe2b07c9ed6)" d="
M289.848 257.601
L289.848 13.6267
L299.752 13.6267
L299.752 257.601
L289.848 257.601" style="fill:#0000ff;"/>
   </g>
   <g id="patch_28">
    <path clip-path="url(#pe2b07c9ed6)" d="
M299.752 257.601
L299.752 12.5737
L309.657 12.5737
L309.657 257.601
L299.752 257.601" style="fill:#0000ff;"/>
   </g>
   <g id="patch_29">
    <path clip-path="url(#pe2b07c9ed6)" d="
M309.657 257.601
L309.657 257.601
L319.561 257.601
L319.561 257.601
L309.657 257.601" style="fill:#0000ff;"/>
   </g>
   <g id="patch_30">
    <path clip-path="url(#pe2b07c9ed6)" d="
M319.561 257.601
L319.561 257.601
L329.465 257.601
L329.465 257.601
L319.561 257.601" style="fill:#0000ff;"/>
   </g>
   <g id="patch_31">
    <path clip-path="url(#pe2b07c9ed6)" d="
M329.465 257.601
L329.465 257.601
L339.369 257.601
L339.369 257.601
L329.465 257.601" style="fill:#0000ff;"/>
   </g>
   <g id="patch_32">
    <path clip-path="url(#pe2b07c9ed6)" d="
M339.369 257.601
L339.369 12.6842
L349.273 12.6842
L349.273 257.601
L339.369 257.601" style="fill:#0000ff;"/>
   </g>
   <g id="patch_33">
    <path clip-path="url(#pe2b07c9ed6)" d="
M349.273 257.601
L349.273 13.288
L359.177 13.288
L359.177 257.601
L349.273 257.601" style="fill:#0000ff;"/>
   </g>
   <g id="patch_34">
    <path clip-path="url(#pe2b07c9ed6)" d="
M359.177 257.601
L359.177 257.601
L369.081 257.601
L369.081 257.601
L359.177 257.601" style="fill:#0000ff;"/>
   </g>
   <g id="patch_35">
    <path clip-path="url(#pe2b07c9ed6)" d="
M369.081 257.601
L369.081 257.601
L378.985 257.601
L378.985 257.601
L369.081 257.601" style="fill:#0000ff;"/>
   </g>
   <g id="patch_36">
    <path clip-path="url(#pe2b07c9ed6)" d="
M378.985 257.601
L378.985 257.601
L388.89 257.601
L388.89 257.601
L378.985 257.601" style="fill:#0000ff;"/>
   </g>
   <g id="patch_37">
    <path clip-path="url(#pe2b07c9ed6)" d="
M388.89 257.601
L388.89 257.601
L398.794 257.601
L398.794 257.601
L388.89 257.601" style="fill:#0000ff;"/>
   </g>
   <g id="patch_38">
    <path clip-path="url(#pe2b07c9ed6)" d="
M398.794 257.601
L398.794 12.7284
L408.698 12.7284
L408.698 257.601
L398.794 257.601" style="fill:#0000ff;"/>
   </g>
   <g id="patch_39">
    <path clip-path="url(#pe2b07c9ed6)" d="
M408.698 257.601
L408.698 257.601
L418.602 257.601
L418.602 257.601
L408.698 257.601" style="fill:#0000ff;"/>
   </g>
   <g id="patch_40">
    <path clip-path="url(#pe2b07c9ed6)" d="
M418.602 257.601
L418.602 257.601
L428.506 257.601
L428.506 257.601
L418.602 257.601" style="fill:#0000ff;"/>
   </g>
   <g id="patch_41">
    <path clip-path="url(#pe2b07c9ed6)" d="
M428.506 257.601
L428.506 13.0082
L438.41 13.0082
L438.41 257.601
L428.506 257.601" style="fill:#0000ff;"/>
   </g>
   <g id="patch_42">
    <path clip-path="url(#pe2b07c9ed6)" d="
M438.41 257.601
L438.41 257.601
L448.314 257.601
L448.314 257.601
L438.41 257.601" style="fill:#0000ff;"/>
   </g>
   <g id="patch_43">
    <path clip-path="url(#pe2b07c9ed6)" d="
M448.314 257.601
L448.314 12.9345
L458.218 12.9345
L458.218 257.601
L448.314 257.601" style="fill:#0000ff;"/>
   </g>
   <g id="patch_44">
    <path clip-path="url(#pe2b07c9ed6)" d="
M458.218 257.601
L458.218 257.601
L468.123 257.601
L468.123 257.601
L458.218 257.601" style="fill:#0000ff;"/>
   </g>
   <g id="patch_45">
    <path clip-path="url(#pe2b07c9ed6)" d="
M468.123 257.601
L468.123 257.601
L478.027 257.601
L478.027 257.601
L468.123 257.601" style="fill:#0000ff;"/>
   </g>
   <g id="patch_46">
    <path clip-path="url(#pe2b07c9ed6)" d="
M478.027 257.601
L478.027 13.3395
L487.931 13.3395
L487.931 257.601
L478.027 257.601" style="fill:#0000ff;"/>
   </g>
   <g id="patch_47">
    <path clip-path="url(#pe2b07c9ed6)" d="
M487.931 257.601
L487.931 257.601
L497.835 257.601
L497.835 257.601
L487.931 257.601" style="fill:#0000ff;"/>
   </g>
   <g id="patch_48">
    <path clip-path="url(#pe2b07c9ed6)" d="
M497.835 257.601
L497.835 13.4942
L507.739 13.4942
L507.739 257.601
L497.835 257.601" style="fill:#0000ff;"/>
   </g>
   <g id="patch_49">
    <path clip-path="url(#pe2b07c9ed6)" d="
M507.739 257.601
L507.739 257.601
L517.643 257.601
L517.643 257.601
L507.739 257.601" style="fill:#0000ff;"/>
   </g>
   <g id="patch_50">
    <path clip-path="url(#pe2b07c9ed6)" d="
M517.643 257.601
L517.643 257.601
L527.547 257.601
L527.547 257.601
L517.643 257.601" style="fill:#0000ff;"/>
   </g>
   <g id="patch_51">
    <path clip-path="url(#pe2b07c9ed6)" d="
M527.547 257.601
L527.547 12.7946
L537.451 12.7946
L537.451 257.601
L527.547 257.601" style="fill:#0000ff;"/>
   </g>
   <g id="patch_52">
    <path clip-path="url(#pe2b07c9ed6)" d="
M537.451 257.601
L537.451 12.8314
L547.356 12.8314
L547.356 257.601
L537.451 257.601" style="fill:#0000ff;"/>
   </g>
   <g id="matplotlib.axis_1">
    <g id="xtick_1">
     <g id="line2d_1">
      <defs>
       <path d="
M0 0
L0 -4" id="m1406014810"/>
      </defs>
      <g>
       <use style="stroke:#000000;stroke-linecap:butt;stroke-width:0.5;" x="116.047000233" xlink:href="#m1406014810" y="257.600946746"/>
      </g>
     </g>
     <g id="text_1">
      <!-- 5 -->
      <defs>
       <path d="
M10.7969 72.9062
L49.5156 72.9062
L49.5156 64.5938
L19.8281 64.5938
L19.8281 46.7344
Q21.9688 47.4688 24.1094 47.8281
Q26.2656 48.1875 28.4219 48.1875
Q40.625 48.1875 47.75 41.5
Q54.8906 34.8125 54.8906 23.3906
Q54.8906 11.625 47.5625 5.09375
Q40.2344 -1.42188 26.9062 -1.42188
Q22.3125 -1.42188 17.5469 -0.640625
Q12.7969 0.140625 7.71875 1.70312
L7.71875 11.625
Q12.1094 9.23438 16.7969 8.0625
Q21.4844 6.89062 26.7031 6.89062
Q35.1562 6.89062 40.0781 11.3281
Q45.0156 15.7656 45.0156 23.3906
Q45.0156 31 40.0781 35.4375
Q35.1562 39.8906 26.7031 39.8906
Q22.75 39.8906 18.8125 39.0156
Q14.8906 38.1406 10.7969 36.2812
z
" id="BitstreamVeraSans-Roman-35"/>
      </defs>
      <g transform="translate(113.688406483 268.891571746)scale(0.1 -0.1)">
       <use xlink:href="#BitstreamVeraSans-Roman-35"/>
      </g>
     </g>
    </g>
    <g id="xtick_2">
     <g id="line2d_2">
      <defs>
       <path d="
M0 0
L0 -4" id="m1406014810"/>
      </defs>
      <g>
       <use style="stroke:#000000;stroke-linecap:butt;stroke-width:0.5;" x="195.918956653" xlink:href="#m1406014810" y="257.600946746"/>
      </g>
     </g>
     <g id="text_2">
      <!-- 10 -->
      <defs>
       <path d="
M31.7812 66.4062
Q24.1719 66.4062 20.3281 58.9062
Q16.5 51.4219 16.5 36.375
Q16.5 21.3906 20.3281 13.8906
Q24.1719 6.39062 31.7812 6.39062
Q39.4531 6.39062 43.2812 13.8906
Q47.125 21.3906 47.125 36.375
Q47.125 51.4219 43.2812 58.9062
Q39.4531 66.4062 31.7812 66.4062
M31.7812 74.2188
Q44.0469 74.2188 50.5156 64.5156
Q56.9844 54.8281 56.9844 36.375
Q56.9844 17.9688 50.5156 8.26562
Q44.0469 -1.42188 31.7812 -1.42188
Q19.5312 -1.42188 13.0625 8.26562
Q6.59375 17.9688 6.59375 36.375
Q6.59375 54.8281 13.0625 64.5156
Q19.5312 74.2188 31.7812 74.2188" id="BitstreamVeraSans-Roman-30"/>
       <path d="
M12.4062 8.29688
L28.5156 8.29688
L28.5156 63.9219
L10.9844 60.4062
L10.9844 69.3906
L28.4219 72.9062
L38.2812 72.9062
L38.2812 8.29688
L54.3906 8.29688
L54.3906 0
L12.4062 0
z
" id="BitstreamVeraSans-Roman-31"/>
      </defs>
      <g transform="translate(190.437706653 269.022821746)scale(0.1 -0.1)">
       <use xlink:href="#BitstreamVeraSans-Roman-31"/>
       <use x="63.623046875" xlink:href="#BitstreamVeraSans-Roman-30"/>
      </g>
     </g>
    </g>
    <g id="xtick_3">
     <g id="line2d_3">
      <defs>
       <path d="
M0 0
L0 -4" id="m1406014810"/>
      </defs>
      <g>
       <use style="stroke:#000000;stroke-linecap:butt;stroke-width:0.5;" x="275.790913074" xlink:href="#m1406014810" y="257.600946746"/>
      </g>
     </g>
     <g id="text_3">
      <!-- 15 -->
      <g transform="translate(270.414350574 268.891571746)scale(0.1 -0.1)">
       <use xlink:href="#BitstreamVeraSans-Roman-31"/>
       <use x="63.623046875" xlink:href="#BitstreamVeraSans-Roman-35"/>
      </g>
     </g>
    </g>
    <g id="xtick_4">
     <g id="line2d_4">
      <defs>
       <path d="
M0 0
L0 -4" id="m1406014810"/>
      </defs>
      <g>
       <use style="stroke:#000000;stroke-linecap:butt;stroke-width:0.5;" x="355.662869494" xlink:href="#m1406014810" y="257.600946746"/>
      </g>
     </g>
     <g id="text_4">
      <!-- 20 -->
      <defs>
       <path d="
M19.1875 8.29688
L53.6094 8.29688
L53.6094 0
L7.32812 0
L7.32812 8.29688
Q12.9375 14.1094 22.625 23.8906
Q32.3281 33.6875 34.8125 36.5312
Q39.5469 41.8438 41.4219 45.5312
Q43.3125 49.2188 43.3125 52.7812
Q43.3125 58.5938 39.2344 62.25
Q35.1562 65.9219 28.6094 65.9219
Q23.9688 65.9219 18.8125 64.3125
Q13.6719 62.7031 7.8125 59.4219
L7.8125 69.3906
Q13.7656 71.7812 18.9375 73
Q24.125 74.2188 28.4219 74.2188
Q39.75 74.2188 46.4844 68.5469
Q53.2188 62.8906 53.2188 53.4219
Q53.2188 48.9219 51.5312 44.8906
Q49.8594 40.875 45.4062 35.4062
Q44.1875 33.9844 37.6406 27.2188
Q31.1094 20.4531 19.1875 8.29688" id="BitstreamVeraSans-Roman-32"/>
      </defs>
      <g transform="translate(349.998806994 269.022821746)scale(0.1 -0.1)">
       <use xlink:href="#BitstreamVeraSans-Roman-32"/>
       <use x="63.623046875" xlink:href="#BitstreamVeraSans-Roman-30"/>
      </g>
     </g>
    </g>
    <g id="xtick_5">
     <g id="line2d_5">
      <defs>
       <path d="
M0 0
L0 -4" id="m1406014810"/>
      </defs>
      <g>
       <use style="stroke:#000000;stroke-linecap:butt;stroke-width:0.5;" x="435.534825915" xlink:href="#m1406014810" y="257.600946746"/>
      </g>
     </g>
     <g id="text_5">
      <!-- 25 -->
      <g transform="translate(429.975450915 269.022821746)scale(0.1 -0.1)">
       <use xlink:href="#BitstreamVeraSans-Roman-32"/>
       <use x="63.623046875" xlink:href="#BitstreamVeraSans-Roman-35"/>
      </g>
     </g>
    </g>
    <g id="xtick_6">
     <g id="line2d_6">
      <defs>
       <path d="
M0 0
L0 -4" id="m1406014810"/>
      </defs>
      <g>
       <use style="stroke:#000000;stroke-linecap:butt;stroke-width:0.5;" x="515.406782336" xlink:href="#m1406014810" y="257.600946746"/>
      </g>
     </g>
     <g id="text_6">
      <!-- 30 -->
      <defs>
       <path d="
M40.5781 39.3125
Q47.6562 37.7969 51.625 33
Q55.6094 28.2188 55.6094 21.1875
Q55.6094 10.4062 48.1875 4.48438
Q40.7656 -1.42188 27.0938 -1.42188
Q22.5156 -1.42188 17.6562 -0.515625
Q12.7969 0.390625 7.625 2.20312
L7.625 11.7188
Q11.7188 9.32812 16.5938 8.10938
Q21.4844 6.89062 26.8125 6.89062
Q36.0781 6.89062 40.9375 10.5469
Q45.7969 14.2031 45.7969 21.1875
Q45.7969 27.6406 41.2812 31.2656
Q36.7656 34.9062 28.7188 34.9062
L20.2188 34.9062
L20.2188 43.0156
L29.1094 43.0156
Q36.375 43.0156 40.2344 45.9219
Q44.0938 48.8281 44.0938 54.2969
Q44.0938 59.9062 40.1094 62.9062
Q36.1406 65.9219 28.7188 65.9219
Q24.6562 65.9219 20.0156 65.0312
Q15.375 64.1562 9.8125 62.3125
L9.8125 71.0938
Q15.4375 72.6562 20.3438 73.4375
Q25.25 74.2188 29.5938 74.2188
Q40.8281 74.2188 47.3594 69.1094
Q53.9062 64.0156 53.9062 55.3281
Q53.9062 49.2656 50.4375 45.0938
Q46.9688 40.9219 40.5781 39.3125" id="BitstreamVeraSans-Roman-33"/>
      </defs>
      <g transform="translate(509.757563586 269.022821746)scale(0.1 -0.1)">
       <use xlink:href="#BitstreamVeraSans-Roman-33"/>
       <use x="63.623046875" xlink:href="#BitstreamVeraSans-Roman-30"/>
      </g>
     </g>
    </g>
    <g id="xtick_7">
     <g id="line2d_7">
      <defs>
       <path d="
M0 0
L0 -2" id="m32adf6fa33"/>
      </defs>
      <g>
       <use style="stroke:#000000;stroke-linecap:butt;stroke-width:0.5;" x="52.1494350962" xlink:href="#m32adf6fa33" y="257.600946746"/>
      </g>
     </g>
    </g>
    <g id="xtick_8">
     <g id="line2d_8">
      <defs>
       <path d="
M0 0
L0 -2" id="m32adf6fa33"/>
      </defs>
      <g>
       <use style="stroke:#000000;stroke-linecap:butt;stroke-width:0.5;" x="68.1238263803" xlink:href="#m32adf6fa33" y="257.600946746"/>
      </g>
     </g>
    </g>
    <g id="xtick_9">
     <g id="line2d_9">
      <defs>
       <path d="
M0 0
L0 -2" id="m32adf6fa33"/>
      </defs>
      <g>
       <use style="stroke:#000000;stroke-linecap:butt;stroke-width:0.5;" x="84.0982176644" xlink:href="#m32adf6fa33" y="257.600946746"/>
      </g>
     </g>
    </g>
    <g id="xtick_10">
     <g id="line2d_10">
      <defs>
       <path d="
M0 0
L0 -2" id="m32adf6fa33"/>
      </defs>
      <g>
       <use style="stroke:#000000;stroke-linecap:butt;stroke-width:0.5;" x="100.072608949" xlink:href="#m32adf6fa33" y="257.600946746"/>
      </g>
     </g>
    </g>
    <g id="xtick_11">
     <g id="line2d_11">
      <defs>
       <path d="
M0 0
L0 -2" id="m32adf6fa33"/>
      </defs>
      <g>
       <use style="stroke:#000000;stroke-linecap:butt;stroke-width:0.5;" x="132.021391517" xlink:href="#m32adf6fa33" y="257.600946746"/>
      </g>
     </g>
    </g>
    <g id="xtick_12">
     <g id="line2d_12">
      <defs>
       <path d="
M0 0
L0 -2" id="m32adf6fa33"/>
      </defs>
      <g>
       <use style="stroke:#000000;stroke-linecap:butt;stroke-width:0.5;" x="147.995782801" xlink:href="#m32adf6fa33" y="257.600946746"/>
      </g>
     </g>
    </g>
    <g id="xtick_13">
     <g id="line2d_13">
      <defs>
       <path d="
M0 0
L0 -2" id="m32adf6fa33"/>
      </defs>
      <g>
       <use style="stroke:#000000;stroke-linecap:butt;stroke-width:0.5;" x="163.970174085" xlink:href="#m32adf6fa33" y="257.600946746"/>
      </g>
     </g>
    </g>
    <g id="xtick_14">
     <g id="line2d_14">
      <defs>
       <path d="
M0 0
L0 -2" id="m32adf6fa33"/>
      </defs>
      <g>
       <use style="stroke:#000000;stroke-linecap:butt;stroke-width:0.5;" x="179.944565369" xlink:href="#m32adf6fa33" y="257.600946746"/>
      </g>
     </g>
    </g>
    <g id="xtick_15">
     <g id="line2d_15">
      <defs>
       <path d="
M0 0
L0 -2" id="m32adf6fa33"/>
      </defs>
      <g>
       <use style="stroke:#000000;stroke-linecap:butt;stroke-width:0.5;" x="211.893347937" xlink:href="#m32adf6fa33" y="257.600946746"/>
      </g>
     </g>
    </g>
    <g id="xtick_16">
     <g id="line2d_16">
      <defs>
       <path d="
M0 0
L0 -2" id="m32adf6fa33"/>
      </defs>
      <g>
       <use style="stroke:#000000;stroke-linecap:butt;stroke-width:0.5;" x="227.867739221" xlink:href="#m32adf6fa33" y="257.600946746"/>
      </g>
     </g>
    </g>
    <g id="xtick_17">
     <g id="line2d_17">
      <defs>
       <path d="
M0 0
L0 -2" id="m32adf6fa33"/>
      </defs>
      <g>
       <use style="stroke:#000000;stroke-linecap:butt;stroke-width:0.5;" x="243.842130506" xlink:href="#m32adf6fa33" y="257.600946746"/>
      </g>
     </g>
    </g>
    <g id="xtick_18">
     <g id="line2d_18">
      <defs>
       <path d="
M0 0
L0 -2" id="m32adf6fa33"/>
      </defs>
      <g>
       <use style="stroke:#000000;stroke-linecap:butt;stroke-width:0.5;" x="259.81652179" xlink:href="#m32adf6fa33" y="257.600946746"/>
      </g>
     </g>
    </g>
    <g id="xtick_19">
     <g id="line2d_19">
      <defs>
       <path d="
M0 0
L0 -2" id="m32adf6fa33"/>
      </defs>
      <g>
       <use style="stroke:#000000;stroke-linecap:butt;stroke-width:0.5;" x="291.765304358" xlink:href="#m32adf6fa33" y="257.600946746"/>
      </g>
     </g>
    </g>
    <g id="xtick_20">
     <g id="line2d_20">
      <defs>
       <path d="
M0 0
L0 -2" id="m32adf6fa33"/>
      </defs>
      <g>
       <use style="stroke:#000000;stroke-linecap:butt;stroke-width:0.5;" x="307.739695642" xlink:href="#m32adf6fa33" y="257.600946746"/>
      </g>
     </g>
    </g>
    <g id="xtick_21">
     <g id="line2d_21">
      <defs>
       <path d="
M0 0
L0 -2" id="m32adf6fa33"/>
      </defs>
      <g>
       <use style="stroke:#000000;stroke-linecap:butt;stroke-width:0.5;" x="323.714086926" xlink:href="#m32adf6fa33" y="257.600946746"/>
      </g>
     </g>
    </g>
    <g id="xtick_22">
     <g id="line2d_22">
      <defs>
       <path d="
M0 0
L0 -2" id="m32adf6fa33"/>
      </defs>
      <g>
       <use style="stroke:#000000;stroke-linecap:butt;stroke-width:0.5;" x="339.68847821" xlink:href="#m32adf6fa33" y="257.600946746"/>
      </g>
     </g>
    </g>
    <g id="xtick_23">
     <g id="line2d_23">
      <defs>
       <path d="
M0 0
L0 -2" id="m32adf6fa33"/>
      </defs>
      <g>
       <use style="stroke:#000000;stroke-linecap:butt;stroke-width:0.5;" x="371.637260779" xlink:href="#m32adf6fa33" y="257.600946746"/>
      </g>
     </g>
    </g>
    <g id="xtick_24">
     <g id="line2d_24">
      <defs>
       <path d="
M0 0
L0 -2" id="m32adf6fa33"/>
      </defs>
      <g>
       <use style="stroke:#000000;stroke-linecap:butt;stroke-width:0.5;" x="387.611652063" xlink:href="#m32adf6fa33" y="257.600946746"/>
      </g>
     </g>
    </g>
    <g id="xtick_25">
     <g id="line2d_25">
      <defs>
       <path d="
M0 0
L0 -2" id="m32adf6fa33"/>
      </defs>
      <g>
       <use style="stroke:#000000;stroke-linecap:butt;stroke-width:0.5;" x="403.586043347" xlink:href="#m32adf6fa33" y="257.600946746"/>
      </g>
     </g>
    </g>
    <g id="xtick_26">
     <g id="line2d_26">
      <defs>
       <path d="
M0 0
L0 -2" id="m32adf6fa33"/>
      </defs>
      <g>
       <use style="stroke:#000000;stroke-linecap:butt;stroke-width:0.5;" x="419.560434631" xlink:href="#m32adf6fa33" y="257.600946746"/>
      </g>
     </g>
    </g>
    <g id="xtick_27">
     <g id="line2d_27">
      <defs>
       <path d="
M0 0
L0 -2" id="m32adf6fa33"/>
      </defs>
      <g>
       <use style="stroke:#000000;stroke-linecap:butt;stroke-width:0.5;" x="451.509217199" xlink:href="#m32adf6fa33" y="257.600946746"/>
      </g>
     </g>
    </g>
    <g id="xtick_28">
     <g id="line2d_28">
      <defs>
       <path d="
M0 0
L0 -2" id="m32adf6fa33"/>
      </defs>
      <g>
       <use style="stroke:#000000;stroke-linecap:butt;stroke-width:0.5;" x="467.483608483" xlink:href="#m32adf6fa33" y="257.600946746"/>
      </g>
     </g>
    </g>
    <g id="xtick_29">
     <g id="line2d_29">
      <defs>
       <path d="
M0 0
L0 -2" id="m32adf6fa33"/>
      </defs>
      <g>
       <use style="stroke:#000000;stroke-linecap:butt;stroke-width:0.5;" x="483.457999767" xlink:href="#m32adf6fa33" y="257.600946746"/>
      </g>
     </g>
    </g>
    <g id="xtick_30">
     <g id="line2d_30">
      <defs>
       <path d="
M0 0
L0 -2" id="m32adf6fa33"/>
      </defs>
      <g>
       <use style="stroke:#000000;stroke-linecap:butt;stroke-width:0.5;" x="499.432391051" xlink:href="#m32adf6fa33" y="257.600946746"/>
      </g>
     </g>
    </g>
    <g id="xtick_31">
     <g id="line2d_31">
      <defs>
       <path d="
M0 0
L0 -2" id="m32adf6fa33"/>
      </defs>
      <g>
       <use style="stroke:#000000;stroke-linecap:butt;stroke-width:0.5;" x="531.38117362" xlink:href="#m32adf6fa33" y="257.600946746"/>
      </g>
     </g>
    </g>
   </g>
   <g id="matplotlib.axis_2">
    <g id="ytick_1">
     <g id="line2d_32">
      <defs>
       <path d="
M0 0
L4 0" id="m82d4af64b2"/>
      </defs>
      <g>
       <use style="stroke:#000000;stroke-linecap:butt;stroke-width:0.5;" x="32.2453125" xlink:href="#m82d4af64b2" y="257.600946746"/>
      </g>
     </g>
     <g id="text_7">
      <!-- 0 -->
      <g transform="translate(23.20625 261.240790496)scale(0.1 -0.1)">
       <use xlink:href="#BitstreamVeraSans-Roman-30"/>
      </g>
     </g>
    </g>
    <g id="ytick_2">
     <g id="line2d_33">
      <defs>
       <path d="
M0 0
L4 0" id="m82d4af64b2"/>
      </defs>
      <g>
       <use style="stroke:#000000;stroke-linecap:butt;stroke-width:0.5;" x="32.2453125" xlink:href="#m82d4af64b2" y="227.260530884"/>
      </g>
     </g>
     <g id="text_8">
      <!-- 0.01 -->
      <defs>
       <path d="
M10.6875 12.4062
L21 12.4062
L21 0
L10.6875 0
z
" id="BitstreamVeraSans-Roman-2e"/>
      </defs>
      <g transform="translate(7.5625 230.900374634)scale(0.1 -0.1)">
       <use xlink:href="#BitstreamVeraSans-Roman-30"/>
       <use x="63.623046875" xlink:href="#BitstreamVeraSans-Roman-2e"/>
       <use x="95.41015625" xlink:href="#BitstreamVeraSans-Roman-30"/>
       <use x="159.033203125" xlink:href="#BitstreamVeraSans-Roman-31"/>
      </g>
     </g>
    </g>
    <g id="ytick_3">
     <g id="line2d_34">
      <defs>
       <path d="
M0 0
L4 0" id="m82d4af64b2"/>
      </defs>
      <g>
       <use style="stroke:#000000;stroke-linecap:butt;stroke-width:0.5;" x="32.2453125" xlink:href="#m82d4af64b2" y="196.920115023"/>
      </g>
     </g>
     <g id="text_9">
      <!-- 0.02 -->
      <g transform="translate(7.640625 200.559958773)scale(0.1 -0.1)">
       <use xlink:href="#BitstreamVeraSans-Roman-30"/>
       <use x="63.623046875" xlink:href="#BitstreamVeraSans-Roman-2e"/>
       <use x="95.41015625" xlink:href="#BitstreamVeraSans-Roman-30"/>
       <use x="159.033203125" xlink:href="#BitstreamVeraSans-Roman-32"/>
      </g>
     </g>
    </g>
    <g id="ytick_4">
     <g id="line2d_35">
      <defs>
       <path d="
M0 0
L4 0" id="m82d4af64b2"/>
      </defs>
      <g>
       <use style="stroke:#000000;stroke-linecap:butt;stroke-width:0.5;" x="32.2453125" xlink:href="#m82d4af64b2" y="166.579699162"/>
      </g>
     </g>
     <g id="text_10">
      <!-- 0.03 -->
      <g transform="translate(7.440625 170.219542912)scale(0.1 -0.1)">
       <use xlink:href="#BitstreamVeraSans-Roman-30"/>
       <use x="63.623046875" xlink:href="#BitstreamVeraSans-Roman-2e"/>
       <use x="95.41015625" xlink:href="#BitstreamVeraSans-Roman-30"/>
       <use x="159.033203125" xlink:href="#BitstreamVeraSans-Roman-33"/>
      </g>
     </g>
    </g>
    <g id="ytick_5">
     <g id="line2d_36">
      <defs>
       <path d="
M0 0
L4 0" id="m82d4af64b2"/>
      </defs>
      <g>
       <use style="stroke:#000000;stroke-linecap:butt;stroke-width:0.5;" x="32.2453125" xlink:href="#m82d4af64b2" y="136.239283301"/>
      </g>
     </g>
     <g id="text_11">
      <!-- 0.04 -->
      <defs>
       <path d="
M37.7969 64.3125
L12.8906 25.3906
L37.7969 25.3906
z

M35.2031 72.9062
L47.6094 72.9062
L47.6094 25.3906
L58.0156 25.3906
L58.0156 17.1875
L47.6094 17.1875
L47.6094 0
L37.7969 0
L37.7969 17.1875
L4.89062 17.1875
L4.89062 26.7031
z
" id="BitstreamVeraSans-Roman-34"/>
      </defs>
      <g transform="translate(7.2 139.879127051)scale(0.1 -0.1)">
       <use xlink:href="#BitstreamVeraSans-Roman-30"/>
       <use x="63.623046875" xlink:href="#BitstreamVeraSans-Roman-2e"/>
       <use x="95.41015625" xlink:href="#BitstreamVeraSans-Roman-30"/>
       <use x="159.033203125" xlink:href="#BitstreamVeraSans-Roman-34"/>
      </g>
     </g>
    </g>
    <g id="ytick_6">
     <g id="line2d_37">
      <defs>
       <path d="
M0 0
L4 0" id="m82d4af64b2"/>
      </defs>
      <g>
       <use style="stroke:#000000;stroke-linecap:butt;stroke-width:0.5;" x="32.2453125" xlink:href="#m82d4af64b2" y="105.89886744"/>
      </g>
     </g>
     <g id="text_12">
      <!-- 0.05 -->
      <g transform="translate(7.5125 109.53871119)scale(0.1 -0.1)">
       <use xlink:href="#BitstreamVeraSans-Roman-30"/>
       <use x="63.623046875" xlink:href="#BitstreamVeraSans-Roman-2e"/>
       <use x="95.41015625" xlink:href="#BitstreamVeraSans-Roman-30"/>
       <use x="159.033203125" xlink:href="#BitstreamVeraSans-Roman-35"/>
      </g>
     </g>
    </g>
    <g id="ytick_7">
     <g id="line2d_38">
      <defs>
       <path d="
M0 0
L4 0" id="m82d4af64b2"/>
      </defs>
      <g>
       <use style="stroke:#000000;stroke-linecap:butt;stroke-width:0.5;" x="32.2453125" xlink:href="#m82d4af64b2" y="75.558451579"/>
      </g>
     </g>
     <g id="text_13">
      <!-- 0.06 -->
      <defs>
       <path d="
M33.0156 40.375
Q26.375 40.375 22.4844 35.8281
Q18.6094 31.2969 18.6094 23.3906
Q18.6094 15.5312 22.4844 10.9531
Q26.375 6.39062 33.0156 6.39062
Q39.6562 6.39062 43.5312 10.9531
Q47.4062 15.5312 47.4062 23.3906
Q47.4062 31.2969 43.5312 35.8281
Q39.6562 40.375 33.0156 40.375
M52.5938 71.2969
L52.5938 62.3125
Q48.875 64.0625 45.0938 64.9844
Q41.3125 65.9219 37.5938 65.9219
Q27.8281 65.9219 22.6719 59.3281
Q17.5312 52.7344 16.7969 39.4062
Q19.6719 43.6562 24.0156 45.9219
Q28.375 48.1875 33.5938 48.1875
Q44.5781 48.1875 50.9531 41.5156
Q57.3281 34.8594 57.3281 23.3906
Q57.3281 12.1562 50.6875 5.35938
Q44.0469 -1.42188 33.0156 -1.42188
Q20.3594 -1.42188 13.6719 8.26562
Q6.98438 17.9688 6.98438 36.375
Q6.98438 53.6562 15.1875 63.9375
Q23.3906 74.2188 37.2031 74.2188
Q40.9219 74.2188 44.7031 73.4844
Q48.4844 72.75 52.5938 71.2969" id="BitstreamVeraSans-Roman-36"/>
      </defs>
      <g transform="translate(7.26875 79.198295329)scale(0.1 -0.1)">
       <use xlink:href="#BitstreamVeraSans-Roman-30"/>
       <use x="63.623046875" xlink:href="#BitstreamVeraSans-Roman-2e"/>
       <use x="95.41015625" xlink:href="#BitstreamVeraSans-Roman-30"/>
       <use x="159.033203125" xlink:href="#BitstreamVeraSans-Roman-36"/>
      </g>
     </g>
    </g>
    <g id="ytick_8">
     <g id="line2d_39">
      <defs>
       <path d="
M0 0
L4 0" id="m82d4af64b2"/>
      </defs>
      <g>
       <use style="stroke:#000000;stroke-linecap:butt;stroke-width:0.5;" x="32.2453125" xlink:href="#m82d4af64b2" y="45.2180357179"/>
      </g>
     </g>
     <g id="text_14">
      <!-- 0.07 -->
      <defs>
       <path d="
M8.20312 72.9062
L55.0781 72.9062
L55.0781 68.7031
L28.6094 0
L18.3125 0
L43.2188 64.5938
L8.20312 64.5938
z
" id="BitstreamVeraSans-Roman-37"/>
      </defs>
      <g transform="translate(7.49375 48.8578794679)scale(0.1 -0.1)">
       <use xlink:href="#BitstreamVeraSans-Roman-30"/>
       <use x="63.623046875" xlink:href="#BitstreamVeraSans-Roman-2e"/>
       <use x="95.41015625" xlink:href="#BitstreamVeraSans-Roman-30"/>
       <use x="159.033203125" xlink:href="#BitstreamVeraSans-Roman-37"/>
      </g>
     </g>
    </g>
    <g id="ytick_9">
     <g id="line2d_40">
      <defs>
       <path d="
M0 0
L4 0" id="m82d4af64b2"/>
      </defs>
      <g>
       <use style="stroke:#000000;stroke-linecap:butt;stroke-width:0.5;" x="32.2453125" xlink:href="#m82d4af64b2" y="14.8776198568"/>
      </g>
     </g>
     <g id="text_15">
      <!-- 0.08 -->
      <defs>
       <path d="
M31.7812 34.625
Q24.75 34.625 20.7188 30.8594
Q16.7031 27.0938 16.7031 20.5156
Q16.7031 13.9219 20.7188 10.1562
Q24.75 6.39062 31.7812 6.39062
Q38.8125 6.39062 42.8594 10.1719
Q46.9219 13.9688 46.9219 20.5156
Q46.9219 27.0938 42.8906 30.8594
Q38.875 34.625 31.7812 34.625
M21.9219 38.8125
Q15.5781 40.375 12.0312 44.7188
Q8.5 49.0781 8.5 55.3281
Q8.5 64.0625 14.7188 69.1406
Q20.9531 74.2188 31.7812 74.2188
Q42.6719 74.2188 48.875 69.1406
Q55.0781 64.0625 55.0781 55.3281
Q55.0781 49.0781 51.5312 44.7188
Q48 40.375 41.7031 38.8125
Q48.8281 37.1562 52.7969 32.3125
Q56.7812 27.4844 56.7812 20.5156
Q56.7812 9.90625 50.3125 4.23438
Q43.8438 -1.42188 31.7812 -1.42188
Q19.7344 -1.42188 13.25 4.23438
Q6.78125 9.90625 6.78125 20.5156
Q6.78125 27.4844 10.7812 32.3125
Q14.7969 37.1562 21.9219 38.8125
M18.3125 54.3906
Q18.3125 48.7344 21.8438 45.5625
Q25.3906 42.3906 31.7812 42.3906
Q38.1406 42.3906 41.7188 45.5625
Q45.3125 48.7344 45.3125 54.3906
Q45.3125 60.0625 41.7188 63.2344
Q38.1406 66.4062 31.7812 66.4062
Q25.3906 66.4062 21.8438 63.2344
Q18.3125 60.0625 18.3125 54.3906" id="BitstreamVeraSans-Roman-38"/>
      </defs>
      <g transform="translate(7.3234375 18.5174636068)scale(0.1 -0.1)">
       <use xlink:href="#BitstreamVeraSans-Roman-30"/>
       <use x="63.623046875" xlink:href="#BitstreamVeraSans-Roman-2e"/>
       <use x="95.41015625" xlink:href="#BitstreamVeraSans-Roman-30"/>
       <use x="159.033203125" xlink:href="#BitstreamVeraSans-Roman-38"/>
      </g>
     </g>
    </g>
    <g id="ytick_10">
     <g id="line2d_41">
      <defs>
       <path d="
M0 0
L2 0" id="m054d3e34c9"/>
      </defs>
      <g>
       <use style="stroke:#000000;stroke-linecap:butt;stroke-width:0.5;" x="32.2453125" xlink:href="#m054d3e34c9" y="251.532863573"/>
      </g>
     </g>
    </g>
    <g id="ytick_11">
     <g id="line2d_42">
      <defs>
       <path d="
M0 0
L2 0" id="m054d3e34c9"/>
      </defs>
      <g>
       <use style="stroke:#000000;stroke-linecap:butt;stroke-width:0.5;" x="32.2453125" xlink:href="#m054d3e34c9" y="245.464780401"/>
      </g>
     </g>
    </g>
    <g id="ytick_12">
     <g id="line2d_43">
      <defs>
       <path d="
M0 0
L2 0" id="m054d3e34c9"/>
      </defs>
      <g>
       <use style="stroke:#000000;stroke-linecap:butt;stroke-width:0.5;" x="32.2453125" xlink:href="#m054d3e34c9" y="239.396697229"/>
      </g>
     </g>
    </g>
    <g id="ytick_13">
     <g id="line2d_44">
      <defs>
       <path d="
M0 0
L2 0" id="m054d3e34c9"/>
      </defs>
      <g>
       <use style="stroke:#000000;stroke-linecap:butt;stroke-width:0.5;" x="32.2453125" xlink:href="#m054d3e34c9" y="233.328614057"/>
      </g>
     </g>
    </g>
    <g id="ytick_14">
     <g id="line2d_45">
      <defs>
       <path d="
M0 0
L2 0" id="m054d3e34c9"/>
      </defs>
      <g>
       <use style="stroke:#000000;stroke-linecap:butt;stroke-width:0.5;" x="32.2453125" xlink:href="#m054d3e34c9" y="221.192447712"/>
      </g>
     </g>
    </g>
    <g id="ytick_15">
     <g id="line2d_46">
      <defs>
       <path d="
M0 0
L2 0" id="m054d3e34c9"/>
      </defs>
      <g>
       <use style="stroke:#000000;stroke-linecap:butt;stroke-width:0.5;" x="32.2453125" xlink:href="#m054d3e34c9" y="215.12436454"/>
      </g>
     </g>
    </g>
    <g id="ytick_16">
     <g id="line2d_47">
      <defs>
       <path d="
M0 0
L2 0" id="m054d3e34c9"/>
      </defs>
      <g>
       <use style="stroke:#000000;stroke-linecap:butt;stroke-width:0.5;" x="32.2453125" xlink:href="#m054d3e34c9" y="209.056281368"/>
      </g>
     </g>
    </g>
    <g id="ytick_17">
     <g id="line2d_48">
      <defs>
       <path d="
M0 0
L2 0" id="m054d3e34c9"/>
      </defs>
      <g>
       <use style="stroke:#000000;stroke-linecap:butt;stroke-width:0.5;" x="32.2453125" xlink:href="#m054d3e34c9" y="202.988198196"/>
      </g>
     </g>
    </g>
    <g id="ytick_18">
     <g id="line2d_49">
      <defs>
       <path d="
M0 0
L2 0" id="m054d3e34c9"/>
      </defs>
      <g>
       <use style="stroke:#000000;stroke-linecap:butt;stroke-width:0.5;" x="32.2453125" xlink:href="#m054d3e34c9" y="196.920115023"/>
      </g>
     </g>
    </g>
    <g id="ytick_19">
     <g id="line2d_50">
      <defs>
       <path d="
M0 0
L2 0" id="m054d3e34c9"/>
      </defs>
      <g>
       <use style="stroke:#000000;stroke-linecap:butt;stroke-width:0.5;" x="32.2453125" xlink:href="#m054d3e34c9" y="190.852031851"/>
      </g>
     </g>
    </g>
    <g id="ytick_20">
     <g id="line2d_51">
      <defs>
       <path d="
M0 0
L2 0" id="m054d3e34c9"/>
      </defs>
      <g>
       <use style="stroke:#000000;stroke-linecap:butt;stroke-width:0.5;" x="32.2453125" xlink:href="#m054d3e34c9" y="184.783948679"/>
      </g>
     </g>
    </g>
    <g id="ytick_21">
     <g id="line2d_52">
      <defs>
       <path d="
M0 0
L2 0" id="m054d3e34c9"/>
      </defs>
      <g>
       <use style="stroke:#000000;stroke-linecap:butt;stroke-width:0.5;" x="32.2453125" xlink:href="#m054d3e34c9" y="178.715865507"/>
      </g>
     </g>
    </g>
    <g id="ytick_22">
     <g id="line2d_53">
      <defs>
       <path d="
M0 0
L2 0" id="m054d3e34c9"/>
      </defs>
      <g>
       <use style="stroke:#000000;stroke-linecap:butt;stroke-width:0.5;" x="32.2453125" xlink:href="#m054d3e34c9" y="172.647782335"/>
      </g>
     </g>
    </g>
    <g id="ytick_23">
     <g id="line2d_54">
      <defs>
       <path d="
M0 0
L2 0" id="m054d3e34c9"/>
      </defs>
      <g>
       <use style="stroke:#000000;stroke-linecap:butt;stroke-width:0.5;" x="32.2453125" xlink:href="#m054d3e34c9" y="160.51161599"/>
      </g>
     </g>
    </g>
    <g id="ytick_24">
     <g id="line2d_55">
      <defs>
       <path d="
M0 0
L2 0" id="m054d3e34c9"/>
      </defs>
      <g>
       <use style="stroke:#000000;stroke-linecap:butt;stroke-width:0.5;" x="32.2453125" xlink:href="#m054d3e34c9" y="154.443532818"/>
      </g>
     </g>
    </g>
    <g id="ytick_25">
     <g id="line2d_56">
      <defs>
       <path d="
M0 0
L2 0" id="m054d3e34c9"/>
      </defs>
      <g>
       <use style="stroke:#000000;stroke-linecap:butt;stroke-width:0.5;" x="32.2453125" xlink:href="#m054d3e34c9" y="148.375449646"/>
      </g>
     </g>
    </g>
    <g id="ytick_26">
     <g id="line2d_57">
      <defs>
       <path d="
M0 0
L2 0" id="m054d3e34c9"/>
      </defs>
      <g>
       <use style="stroke:#000000;stroke-linecap:butt;stroke-width:0.5;" x="32.2453125" xlink:href="#m054d3e34c9" y="142.307366473"/>
      </g>
     </g>
    </g>
    <g id="ytick_27">
     <g id="line2d_58">
      <defs>
       <path d="
M0 0
L2 0" id="m054d3e34c9"/>
      </defs>
      <g>
       <use style="stroke:#000000;stroke-linecap:butt;stroke-width:0.5;" x="32.2453125" xlink:href="#m054d3e34c9" y="130.171200129"/>
      </g>
     </g>
    </g>
    <g id="ytick_28">
     <g id="line2d_59">
      <defs>
       <path d="
M0 0
L2 0" id="m054d3e34c9"/>
      </defs>
      <g>
       <use style="stroke:#000000;stroke-linecap:butt;stroke-width:0.5;" x="32.2453125" xlink:href="#m054d3e34c9" y="124.103116957"/>
      </g>
     </g>
    </g>
    <g id="ytick_29">
     <g id="line2d_60">
      <defs>
       <path d="
M0 0
L2 0" id="m054d3e34c9"/>
      </defs>
      <g>
       <use style="stroke:#000000;stroke-linecap:butt;stroke-width:0.5;" x="32.2453125" xlink:href="#m054d3e34c9" y="118.035033785"/>
      </g>
     </g>
    </g>
    <g id="ytick_30">
     <g id="line2d_61">
      <defs>
       <path d="
M0 0
L2 0" id="m054d3e34c9"/>
      </defs>
      <g>
       <use style="stroke:#000000;stroke-linecap:butt;stroke-width:0.5;" x="32.2453125" xlink:href="#m054d3e34c9" y="111.966950612"/>
      </g>
     </g>
    </g>
    <g id="ytick_31">
     <g id="line2d_62">
      <defs>
       <path d="
M0 0
L2 0" id="m054d3e34c9"/>
      </defs>
      <g>
       <use style="stroke:#000000;stroke-linecap:butt;stroke-width:0.5;" x="32.2453125" xlink:href="#m054d3e34c9" y="99.8307842679"/>
      </g>
     </g>
    </g>
    <g id="ytick_32">
     <g id="line2d_63">
      <defs>
       <path d="
M0 0
L2 0" id="m054d3e34c9"/>
      </defs>
      <g>
       <use style="stroke:#000000;stroke-linecap:butt;stroke-width:0.5;" x="32.2453125" xlink:href="#m054d3e34c9" y="93.7627010957"/>
      </g>
     </g>
    </g>
    <g id="ytick_33">
     <g id="line2d_64">
      <defs>
       <path d="
M0 0
L2 0" id="m054d3e34c9"/>
      </defs>
      <g>
       <use style="stroke:#000000;stroke-linecap:butt;stroke-width:0.5;" x="32.2453125" xlink:href="#m054d3e34c9" y="87.6946179235"/>
      </g>
     </g>
    </g>
    <g id="ytick_34">
     <g id="line2d_65">
      <defs>
       <path d="
M0 0
L2 0" id="m054d3e34c9"/>
      </defs>
      <g>
       <use style="stroke:#000000;stroke-linecap:butt;stroke-width:0.5;" x="32.2453125" xlink:href="#m054d3e34c9" y="81.6265347512"/>
      </g>
     </g>
    </g>
    <g id="ytick_35">
     <g id="line2d_66">
      <defs>
       <path d="
M0 0
L2 0" id="m054d3e34c9"/>
      </defs>
      <g>
       <use style="stroke:#000000;stroke-linecap:butt;stroke-width:0.5;" x="32.2453125" xlink:href="#m054d3e34c9" y="75.558451579"/>
      </g>
     </g>
    </g>
    <g id="ytick_36">
     <g id="line2d_67">
      <defs>
       <path d="
M0 0
L2 0" id="m054d3e34c9"/>
      </defs>
      <g>
       <use style="stroke:#000000;stroke-linecap:butt;stroke-width:0.5;" x="32.2453125" xlink:href="#m054d3e34c9" y="69.4903684068"/>
      </g>
     </g>
    </g>
    <g id="ytick_37">
     <g id="line2d_68">
      <defs>
       <path d="
M0 0
L2 0" id="m054d3e34c9"/>
      </defs>
      <g>
       <use style="stroke:#000000;stroke-linecap:butt;stroke-width:0.5;" x="32.2453125" xlink:href="#m054d3e34c9" y="63.4222852346"/>
      </g>
     </g>
    </g>
    <g id="ytick_38">
     <g id="line2d_69">
      <defs>
       <path d="
M0 0
L2 0" id="m054d3e34c9"/>
      </defs>
      <g>
       <use style="stroke:#000000;stroke-linecap:butt;stroke-width:0.5;" x="32.2453125" xlink:href="#m054d3e34c9" y="57.3542020624"/>
      </g>
     </g>
    </g>
    <g id="ytick_39">
     <g id="line2d_70">
      <defs>
       <path d="
M0 0
L2 0" id="m054d3e34c9"/>
      </defs>
      <g>
       <use style="stroke:#000000;stroke-linecap:butt;stroke-width:0.5;" x="32.2453125" xlink:href="#m054d3e34c9" y="51.2861188901"/>
      </g>
     </g>
    </g>
    <g id="ytick_40">
     <g id="line2d_71">
      <defs>
       <path d="
M0 0
L2 0" id="m054d3e34c9"/>
      </defs>
      <g>
       <use style="stroke:#000000;stroke-linecap:butt;stroke-width:0.5;" x="32.2453125" xlink:href="#m054d3e34c9" y="39.1499525457"/>
      </g>
     </g>
    </g>
    <g id="ytick_41">
     <g id="line2d_72">
      <defs>
       <path d="
M0 0
L2 0" id="m054d3e34c9"/>
      </defs>
      <g>
       <use style="stroke:#000000;stroke-linecap:butt;stroke-width:0.5;" x="32.2453125" xlink:href="#m054d3e34c9" y="33.0818693735"/>
      </g>
     </g>
    </g>
    <g id="ytick_42">
     <g id="line2d_73">
      <defs>
       <path d="
M0 0
L2 0" id="m054d3e34c9"/>
      </defs>
      <g>
       <use style="stroke:#000000;stroke-linecap:butt;stroke-width:0.5;" x="32.2453125" xlink:href="#m054d3e34c9" y="27.0137862013"/>
      </g>
     </g>
    </g>
    <g id="ytick_43">
     <g id="line2d_74">
      <defs>
       <path d="
M0 0
L2 0" id="m054d3e34c9"/>
      </defs>
      <g>
       <use style="stroke:#000000;stroke-linecap:butt;stroke-width:0.5;" x="32.2453125" xlink:href="#m054d3e34c9" y="20.9457030291"/>
      </g>
     </g>
    </g>
    <g id="ytick_44">
     <g id="line2d_75">
      <defs>
       <path d="
M0 0
L2 0" id="m054d3e34c9"/>
      </defs>
      <g>
       <use style="stroke:#000000;stroke-linecap:butt;stroke-width:0.5;" x="32.2453125" xlink:href="#m054d3e34c9" y="14.8776198568"/>
      </g>
     </g>
    </g>
   </g>
   <g id="patch_53">
    <path d="
M42.2453 257.601
L557.26 257.601" style="fill:none;stroke:#000000;stroke-width:0.8;"/>
   </g>
   <g id="patch_54">
    <path d="
M32.2453 262.511
L32.2453 7.2" style="fill:none;stroke:#000000;stroke-width:0.8;"/>
   </g>
  </g>
 </g>
 <defs>
  <clipPath id="pe2b07c9ed6">
   <rect height="255.310769231" width="515.014375" x="42.2453125" y="7.2"/>
  </clipPath>
 </defs>
</svg>
